<svg width="726" height="636" viewBox="0 0 726 636" fill="none" xmlns="http://www.w3.org/2000/svg">
	<path opacity="0.4" d="M1096.3 430.486L618.38 303.982M190.932 729.955L123.861 797.027L217.612 827.248M190.932 729.955C213.349 735.977 251.778 746.296 288.66 756.199M190.932 729.955L217.612 827.248M190.932 729.955L165.429 632.968M190.932 729.955L262.466 658.792M333.999 587.629L431.289 613.57M333.999 587.629L360.114 684.745M333.999 587.629L262.466 658.792M386.385 782.439L360.114 684.745M386.385 782.439C386.385 782.439 338.961 769.706 288.66 756.199M386.385 782.439L457.597 711.227M386.385 782.439L314.9 853.924M386.385 782.439L412.391 879.664M386.385 782.439C386.385 782.439 429.223 793.934 483.548 808.507M461.152 1061.96L412.391 879.664M431.289 613.57L405.715 516.647L502.27 542.589L431.289 613.57ZM431.289 613.57L360.114 684.745M431.289 613.57L457.597 711.227M360.114 684.745L288.66 756.199M360.114 684.745L262.466 658.792M360.114 684.745L457.597 711.227M288.66 756.199L217.612 827.248M288.66 756.199L262.466 658.792M288.66 756.199L314.9 853.924M217.612 827.248L412.391 879.664M217.612 827.248L247.829 920.995M165.429 632.968L236.883 561.514L262.466 658.792M165.429 632.968L262.466 658.792M457.597 711.227L554.887 737.168M457.597 711.227L535.856 1003.39L341.209 950.846M247.829 920.995L314.9 853.924M247.829 920.995L341.209 950.846M314.9 853.924L341.209 950.846M341.209 950.846L412.391 879.664M412.391 879.664L483.548 808.507M412.391 879.664L607.146 932.105L554.887 737.168M483.548 808.507C550.72 826.526 635.454 849.249 678.485 860.766L652.286 763.218M483.548 808.507L554.887 737.168M554.887 737.168L652.286 763.218M554.887 737.168L982.243 309.078M652.286 763.218L749.465 789.785L670.753 498.077M652.286 763.218L600.083 568.85M618.38 303.982L592.945 205.819M618.38 303.982L670.753 498.077M567.511 107.655L637.756 37.4102L820.446 718.804M567.511 107.655L592.945 205.819M567.511 107.655L761.648 160.714M820.446 718.804L891.427 647.824M820.446 718.804L529 639.933L600.083 568.85M891.427 647.824L813.421 355.036M891.427 647.824L600.083 568.85M592.945 205.819L735.414 62.2492L761.648 160.714M592.945 205.819L787.407 257.399M982.243 309.078L1034.49 504.759L742.004 426.453M982.243 309.078L885.426 283.398M547.88 374.482L475.96 446.402L670.753 498.077M547.88 374.482L742.004 426.453M547.88 374.482L573.981 471.666M547.88 374.482L761.648 160.714M885.426 283.398L963.511 575.74L670.753 498.077M885.426 283.398L920.995 247.829M885.426 283.398L813.421 355.036M885.426 283.398L787.407 257.399M813.421 355.036L742.004 426.453M813.421 355.036L787.407 257.399M742.004 426.453L670.753 498.077M670.753 498.077L600.083 568.85M600.083 568.85L573.981 471.666M407.347 1008.16L1040.66 374.847M573.981 471.666L787.407 257.399M787.407 257.399L761.648 160.714" stroke="#00B65F" />
</svg>
