<svg width="410" height="607" viewBox="0 0 410 607" fill="none" xmlns="http://www.w3.org/2000/svg">
	<path opacity="0.4" d="M524.498 555.441L437.206 605.892L436.688 0.999954L350.069 51.3013M524.498 555.441L612 505.51L350.073 354.899M524.498 555.441L350.146 454.915M1.00008 151.833L1.0001 52.4911L612 405.128M1.00008 151.833L88.3969 203.26M1.00008 151.833L175.794 52.0749M612 405.128L612 304.746M612 405.128L350.146 555.441L350.146 454.915M612 304.746L349.81 152.873M612 304.746L350.146 454.915M88.3969 203.26L175.794 254.687L350.073 354.899M88.3969 203.26L87.619 0.999893L175.794 52.0749M88.3969 203.26L262.375 102.227M175.794 354.389L175.794 456.099L350.073 354.899M175.794 354.389L349.81 253.872M175.794 354.389L262.97 404.652M175.794 354.389L175.794 52.0749M350.069 51.3013L612 202.804L350.073 354.899M350.069 51.3013L349.81 152.873M350.069 51.3013L262.375 102.227M349.81 152.873L349.81 253.872M349.81 152.873L262.375 102.227M349.81 253.872L350.073 354.899M350.073 354.899L350.146 454.915M350.146 454.915L262.97 404.652M262.97 404.652L262.375 102.227M262.375 102.227L175.794 52.0749M262.413 605.892L175.794 555.441L262.413 505.51L262.413 605.892Z" stroke="#00B65F" />
</svg>
