<svg width="304" height="176" viewBox="0 0 304 176" fill="none" xmlns="http://www.w3.org/2000/svg">
	<path opacity="0.4" d="M235.773 116.782L302.462 116.711L269.098 59.0615M235.773 116.782L268.758 174.4L202.539 174.345L235.773 116.782ZM235.773 116.782L269.098 59.0615M235.773 116.782L202.192 58.82M269.098 59.0615L235.535 1.06937M269.098 59.0615L302.553 1.1144C268.057 1.09085 235.535 1.06937 235.535 1.06937M269.098 59.0615L202.192 58.82M235.535 1.06937L202.192 58.82M235.535 1.06937C235.535 1.06937 206.158 1.05407 168.905 1.03784M202.192 58.82L168.905 1.03784M168.905 1.03784L135.503 58.8912M168.905 1.03784C147.856 1.02868 124.293 1.01921 102.093 1.01204M35.2339 1.00055L68.7259 58.9113M35.2339 1.00055L2 58.5634L68.7259 58.9113M35.2339 1.00055C51.2555 0.998247 75.7115 1.00352 102.093 1.01204M135.503 58.8912L68.7259 58.9113M135.503 58.8912L168.976 116.867M135.503 58.8912L102.093 116.606M135.503 58.8912L102.093 1.01204M68.7259 58.9113L102.093 116.606M68.7259 58.9113L102.093 1.01204M168.976 116.867L135.46 174.301L102.093 116.606M168.976 116.867L102.093 116.606" stroke="#00C167" stroke-width="1.6" />
</svg>
