<svg width="303" height="175" viewBox="0 0 303 175" fill="none" xmlns="http://www.w3.org/2000/svg">
	<path opacity="0.4" d="M67.7799 58.6182L1.09091 58.6893L34.4552 116.338M67.7799 58.6182L34.7946 0.999988L101.014 1.05533L67.7799 58.6182ZM67.7799 58.6182L34.4552 116.338M67.7799 58.6182L101.36 116.58M34.4552 116.338L68.018 174.331M34.4552 116.338L0.999352 174.285C35.4956 174.309 68.018 174.331 68.018 174.331M34.4552 116.338L101.36 116.58M68.018 174.331L101.36 116.58M68.018 174.331C68.018 174.331 97.3946 174.346 134.648 174.362M101.36 116.58L134.648 174.362M134.648 174.362L168.049 116.509M134.648 174.362C155.697 174.371 179.26 174.381 201.46 174.388M268.319 174.399L234.827 116.489M268.319 174.399L301.553 116.837L234.827 116.489M268.319 174.399C252.297 174.402 227.841 174.396 201.46 174.388M168.049 116.509L234.827 116.489M168.049 116.509L134.577 58.533M168.049 116.509L201.46 58.7938M168.049 116.509L201.46 174.388M234.827 116.489L201.46 58.7938M234.827 116.489L201.46 174.388M134.577 58.533L168.092 1.09886L201.46 58.7938M134.577 58.533L201.46 58.7938" stroke="#00B65F" />
</svg>
