<svg width="881" height="582" viewBox="0 0 881 582" fill="none" xmlns="http://www.w3.org/2000/svg">
	<path opacity="0.4" d="M449.723 1096.3L576.227 618.38M150.254 190.932L83.1824 123.861L52.9613 217.612M150.254 190.932C144.232 213.349 133.913 251.778 124.01 288.66M150.254 190.932L52.9613 217.612M150.254 190.932L247.241 165.429M150.254 190.932L221.417 262.466M292.58 333.999L266.639 431.289M292.58 333.999L195.464 360.114M292.58 333.999L221.417 262.466M97.7702 386.385L195.464 360.114M97.7702 386.385C97.7702 386.385 110.503 338.961 124.01 288.66M97.7702 386.385L168.982 457.597M97.7702 386.385L26.2854 314.9M97.7702 386.385L0.544941 412.391M97.7702 386.385C97.7702 386.385 86.275 429.223 71.7023 483.548M-181.752 461.152L0.544941 412.391M266.639 431.289L363.562 405.715L337.62 502.27L266.639 431.289ZM266.639 431.289L195.464 360.114M266.639 431.289L168.982 457.597M195.464 360.114L124.01 288.66M195.464 360.114L221.417 262.466M195.464 360.114L168.982 457.597M124.01 288.66L52.9613 217.612M124.01 288.66L221.417 262.466M124.01 288.66L26.2854 314.9M52.9613 217.612L0.544941 412.391M52.9613 217.612L-40.7859 247.829M247.241 165.429L318.695 236.883L221.417 262.466M247.241 165.429L221.417 262.466M168.982 457.597L143.041 554.887M168.982 457.597L-123.186 535.856L-70.6365 341.209M-40.7859 247.829L26.2854 314.9M-40.7859 247.829L-70.6365 341.209M26.2854 314.9L-70.6365 341.209M-70.6365 341.209L0.544941 412.391M0.544941 412.391L71.7023 483.548M0.544941 412.391L-51.8955 607.146L143.041 554.887M71.7023 483.548C53.6835 550.72 30.9596 635.454 19.4433 678.485L116.991 652.286M71.7023 483.548L143.041 554.887M143.041 554.887L116.991 652.286M143.041 554.887L571.131 982.243M116.991 652.286L90.424 749.465L382.132 670.753M116.991 652.286L311.359 600.083M576.227 618.38L674.39 592.945M576.227 618.38L382.132 670.753M772.554 567.511L842.799 637.756L161.405 820.446M772.554 567.511L674.39 592.945M772.554 567.511L719.495 761.648M161.405 820.446L232.385 891.427M161.405 820.446L240.276 529L311.359 600.083M232.385 891.427L525.173 813.421M232.385 891.427L311.359 600.083M674.39 592.945L817.96 735.414L719.495 761.648M674.39 592.945L622.81 787.407M571.131 982.243L375.45 1034.49L453.756 742.004M571.131 982.243L596.811 885.426M505.727 547.88L433.807 475.96L382.132 670.753M505.727 547.88L453.756 742.004M505.727 547.88L408.543 573.981M505.727 547.88L719.495 761.648M596.811 885.426L304.469 963.511L382.132 670.753M596.811 885.426L632.38 920.995M596.811 885.426L525.173 813.421M596.811 885.426L622.81 787.407M525.173 813.421L453.756 742.004M525.173 813.421L622.81 787.407M453.756 742.004L382.132 670.753M382.132 670.753L311.359 600.083M311.359 600.083L408.543 573.981M-127.948 407.347L505.362 1040.66M408.543 573.981L622.81 787.407M622.81 787.407L719.495 761.648" stroke="#00B65F" />
</svg>
