<svg width="526" height="465" viewBox="0 0 526 465" fill="none" xmlns="http://www.w3.org/2000/svg">
	<path opacity="0.4" d="M87.5453 404.158C107.639 392.566 142.082 372.694 175.138 353.62M87.5453 404.158L175.138 454.08M87.5453 404.158L1 353.62M87.5453 404.158L87.8071 303.274M88.0688 202.391L175.138 151.949M88.0688 202.391L175.138 252.587M88.0688 202.391L87.8071 303.274M262.725 303.082L175.138 252.587M262.725 303.082C262.725 303.082 220.221 327.607 175.138 353.62M262.725 303.082L262.725 202.391M262.725 303.082V404.158M262.725 303.082L349.794 353.432M262.725 303.082C262.725 303.082 301.114 280.923 349.794 252.819M513.048 447.839L349.794 353.432M175.138 151.949L88.5871 101.508L175.138 51.5858V151.949ZM175.138 151.949L175.138 252.587M175.138 151.949L262.725 202.391M175.138 252.587V353.62M175.138 252.587L87.8071 303.274M175.138 252.587L262.725 202.391M175.138 353.62L175.138 454.08M175.138 353.62L87.8071 303.274M175.138 353.62L262.725 404.158M175.138 454.08L349.794 353.432M1 353.62L1 252.587L87.8071 303.274M1 353.62L87.8071 303.274M262.725 202.391L349.794 151.949M262.725 202.391L524.449 353.62L349.794 454.08M262.725 465V404.158M262.725 404.158L349.794 454.08M349.794 454.08V353.432M349.794 353.432L349.794 252.819M349.794 353.432L524.449 252.819L349.794 151.949M349.794 252.819C409.985 218.069 485.909 174.229 524.449 151.949L437.016 101.508M349.794 252.819V151.949M349.794 151.949L437.016 101.508M349.794 151.949L262.802 101.508V1L437.016 101.508M437.016 101.508L524.449 51.5858" stroke="#00B65F" />
</svg>
