<svg width="416" height="954" viewBox="0 0 416 954" fill="none" xmlns="http://www.w3.org/2000/svg">
	<path opacity="0.4" d="M-187.183 947.799L240.206 699.313M241.249 95.8533V1L153.587 45.9224M241.249 95.8533C221.14 107.447 186.669 127.323 153.587 146.4M241.249 95.8533L153.587 45.9224M241.249 95.8533L327.862 146.4M241.249 95.8533L240.987 196.755M240.725 297.657L153.587 348.108M240.725 297.657L153.587 247.452M240.725 297.657L240.987 196.755M65.9312 196.948L153.587 247.452M65.9312 196.948C65.9312 196.948 108.468 172.418 153.587 146.4M65.9312 196.948V297.657M65.9312 196.948V95.8533M65.9312 196.948L-21.2063 146.588M65.9312 196.948C65.9312 196.948 27.5119 219.111 -21.2063 247.22M-184.589 52.1637L-21.2063 146.588M153.587 348.108L240.206 398.559L153.587 448.49V348.108ZM153.587 348.108V247.452M153.587 348.108L65.9312 297.657M153.587 247.452V146.4M153.587 247.452L240.987 196.755M153.587 247.452L65.9312 297.657M153.587 146.4V45.9224M153.587 146.4L240.987 196.755M153.587 146.4L65.9312 95.8533M153.587 45.9224L-21.2063 146.588M153.587 45.9224L65.9312 1M327.862 146.4V247.452L240.987 196.755M327.862 146.4L240.987 196.755M65.9312 297.657L-21.2063 348.108M65.9312 297.657L-196 146.4L-21.2063 45.9224M65.9312 1V95.8533M65.9312 1L-21.2063 45.9224M65.9312 95.8533L-21.2063 45.9224M-21.2063 45.9224V146.588M-21.2063 146.588V247.22M-21.2063 146.588L-196 247.22L-21.2063 348.108M-21.2063 247.22C-81.4451 281.976 -157.429 325.824 -196 348.108L-108.498 398.559M-21.2063 247.22V348.108M-21.2063 348.108L-108.498 398.559M-21.2063 348.108L-20.6876 953M-108.498 398.559L-196 448.49L65.9272 599.101M-108.498 398.559L65.8542 499.085M240.206 699.313L327.603 750.74M240.206 699.313L65.9272 599.101M415 802.167V901.509L-196 548.872M415 802.167L327.603 750.74M415 802.167L240.206 901.925M-196 548.872V649.254M-196 548.872L65.8542 398.559V499.085M-196 649.254L66.1906 801.127M-196 649.254L65.8542 499.085M327.603 750.74L328.381 953L240.206 901.925M327.603 750.74L153.625 851.773M-20.6876 953L-196 851.578L66.1906 700.128M-20.6876 953L65.9312 902.699M240.206 599.611V497.901L65.9272 599.101M240.206 599.611L66.1906 700.128M240.206 599.611L153.03 549.348M240.206 599.611V901.925M65.9312 902.699L-196 751.196L65.9272 599.101M65.9312 902.699V953M65.9312 902.699L66.1906 801.127M65.9312 902.699L153.625 851.773M66.1906 801.127V700.128M66.1906 801.127L153.625 851.773M66.1906 700.128L65.9272 599.101M65.9272 599.101L65.8542 499.085M65.8542 499.085L153.03 549.348M-108.498 52.1637V947.799M153.03 549.348L153.625 851.773M153.625 851.773L240.206 901.925" stroke="#00B65F" />
</svg>
