<svg width="144" height="304" viewBox="0 0 144 304" fill="none" xmlns="http://www.w3.org/2000/svg">
	<path opacity="0.4" d="M84.7818 68.7804L84.7106 2.0914L27.0616 35.4556M84.7818 68.7804L142.4 35.795L142.345 102.014L84.7818 68.7804ZM84.7818 68.7804L27.0616 35.4556M84.7818 68.7804L26.82 102.361M27.0616 35.4556L-30.9306 69.0185M27.0616 35.4556L-30.8856 1.99983C-30.9091 36.4961 -30.9306 69.0185 -30.9306 69.0185M27.0616 35.4556L26.82 102.361M-30.9306 69.0185L26.82 102.361M-30.9306 69.0185C-30.9306 69.0185 -30.9459 98.3951 -30.9621 135.648M26.82 102.361L-30.9621 135.648M-30.9621 135.648L26.8912 169.05M-30.9621 135.648C-30.9713 156.697 -30.9808 180.26 -30.988 202.46M-30.9994 269.319L26.9113 235.827M-30.9994 269.319L26.5634 302.553L26.9113 235.827M-30.9994 269.319C-31.0017 253.298 -30.9965 228.842 -30.988 202.46M26.8912 169.05L26.9113 235.827M26.8912 169.05L84.8669 135.578M26.8912 169.05L84.6061 202.46M26.8912 169.05L-30.988 202.46M26.9113 235.827L84.6061 202.46M26.9113 235.827L-30.988 202.46M84.8669 135.578L142.301 169.093L84.6061 202.46M84.8669 135.578L84.6061 202.46" stroke="#00B65F" stroke-width="1.6" />
</svg>
