<svg width="28" height="28" viewBox="0 0 28 28" fill="none" xmlns="http://www.w3.org/2000/svg">
	<path d="M27.2598 8.50709C27.1973 7.09018 26.9682 6.11607 26.64 5.27199C26.3014 4.37602 25.7804 3.57386 25.0979 2.90702C24.4311 2.2298 23.6236 1.70357 22.738 1.37026C21.8891 1.04203 20.9201 0.812895 19.5031 0.750423C18.0757 0.682661 17.6225 0.666992 14.002 0.666992C10.3815 0.666992 9.9283 0.682661 8.5061 0.745133C7.0892 0.807604 6.11509 1.03694 5.27121 1.36497C4.37504 1.70357 3.57288 2.22451 2.90604 2.90702C2.22882 3.57386 1.7028 4.38131 1.36928 5.2669C1.04105 6.11607 0.811918 7.08489 0.749447 8.5018C0.681684 9.92929 0.666016 10.3825 0.666016 14.003C0.666016 17.6235 0.681684 18.0767 0.744156 19.4989C0.806628 20.9158 1.03596 21.8899 1.36419 22.7339C1.7028 23.6299 2.22882 24.4321 2.90604 25.0989C3.57288 25.7761 4.38033 26.3024 5.26592 26.6357C6.11509 26.9639 7.08391 27.193 8.50102 27.2555C9.92301 27.3182 10.3764 27.3337 13.9969 27.3337C17.6174 27.3337 18.0706 27.3182 19.4928 27.2555C20.9097 27.193 21.8838 26.9639 22.7277 26.6357C24.5198 25.9428 25.9367 24.5259 26.6296 22.7339C26.9576 21.8848 27.187 20.9158 27.2494 19.4989C27.3119 18.0767 27.3276 17.6235 27.3276 14.003C27.3276 10.3825 27.3223 9.92929 27.2598 8.50709ZM24.8584 19.3947C24.801 20.697 24.5823 21.4003 24.3999 21.8691C23.9519 23.0308 23.0298 23.9529 21.8681 24.4009C21.3993 24.5833 20.6909 24.802 19.3937 24.8592C17.9871 24.9219 17.5653 24.9373 14.0073 24.9373C10.4492 24.9373 10.0221 24.9219 8.62067 24.8592C7.31833 24.802 6.61507 24.5833 6.14622 24.4009C5.56811 24.1873 5.04188 23.8487 4.61475 23.4059C4.17196 22.9735 3.83335 22.4525 3.61968 21.8744C3.43736 21.4056 3.2186 20.697 3.16142 19.4C3.09875 17.9934 3.08328 17.5714 3.08328 14.0133C3.08328 10.4553 3.09875 10.0282 3.16142 8.62695C3.2186 7.3246 3.43736 6.62134 3.61968 6.1525C3.83335 5.57417 4.17196 5.04815 4.62004 4.62082C5.05226 4.17802 5.57319 3.83942 6.15151 3.62595C6.62036 3.44363 7.32891 3.22487 8.62596 3.16749C10.0325 3.10502 10.4545 3.08935 14.0124 3.08935C17.5757 3.08935 17.9975 3.10502 19.399 3.16749C20.7013 3.22487 21.4046 3.44363 21.8734 3.62595C22.4515 3.83942 22.9777 4.17802 23.4049 4.62082C23.8477 5.05324 24.1863 5.57417 24.3999 6.1525C24.5823 6.62134 24.801 7.32969 24.8584 8.62695C24.9209 10.0335 24.9366 10.4553 24.9366 14.0133C24.9366 17.5714 24.9209 17.9881 24.8584 19.3947Z" fill="white" />
	<path d="M14.0027 7.15234C10.2208 7.15234 7.15234 10.2206 7.15234 14.0027C7.15234 17.7848 10.2208 20.853 14.0027 20.853C17.7847 20.853 20.853 17.7848 20.853 14.0027C20.853 10.2206 17.7847 7.15234 14.0027 7.15234ZM14.0027 18.4463C11.5492 18.4463 9.55903 16.4564 9.55903 14.0027C9.55903 11.549 11.5492 9.55903 14.0027 9.55903C16.4564 9.55903 18.4463 11.549 18.4463 14.0027C18.4463 16.4564 16.4564 18.4463 14.0027 18.4463Z" fill="white" />
	<path d="M22.7221 6.88146C22.7221 7.76462 22.006 8.4807 21.1227 8.4807C20.2395 8.4807 19.5234 7.76462 19.5234 6.88146C19.5234 5.99811 20.2395 5.28223 21.1227 5.28223C22.006 5.28223 22.7221 5.99811 22.7221 6.88146Z" fill="white" />
</svg>
