<svg width="57" height="57" viewBox="0 0 57 57" fill="none" xmlns="http://www.w3.org/2000/svg">
	<g clip-path="url(#clip0)">
		<path d="M55.986 27.7069C50.5637 22.0866 41.3807 18.676 32.9178 19.1674C29.037 15.4304 23.7667 13.2831 18.3054 13.2831C17.9896 13.2808 17.6985 13.4587 17.5559 13.7404C17.4133 14.0244 17.4428 14.3626 17.6325 14.616L21.524 19.8085L20.3348 19.8757C19.8929 19.9005 19.5488 20.2658 19.5488 20.7089L19.5488 35.8575C19.5488 36.0861 19.6419 36.2947 19.7939 36.4468C19.9341 36.587 20.1239 36.6777 20.336 36.6895L21.5251 36.7567L17.6337 41.9492C17.444 42.2026 17.4557 42.5397 17.596 42.8213C17.6325 42.8932 17.6808 42.958 17.7386 43.0158C17.9059 43.1831 18.1499 43.2809 18.3844 43.2821C23.7702 43.2821 29.0405 41.1349 32.9213 37.3978C41.3972 37.8857 50.6014 34.501 55.9872 28.8583C56.2924 28.5366 56.2924 28.0298 55.986 27.7069V27.7069ZM40.3825 32.4492C39.2346 32.4492 38.1928 31.9826 37.4374 31.2271C36.682 30.4717 36.2153 29.4299 36.2153 28.282C36.2165 25.9851 38.0856 24.116 40.3825 24.1148C42.6806 24.1148 44.5497 25.9839 44.5497 28.282C44.5497 30.5801 42.6794 32.4504 40.3825 32.4492Z" fill="#00B65F" />
		<path d="M11.5699 23.1329C9.04786 23.1329 1.6197 27.0986 0.781781 27.5499C0.511902 27.6949 0.344554 27.9777 0.343375 28.283C0.343375 28.5092 0.432943 28.719 0.587328 28.8734C0.643897 28.93 0.708715 28.9783 0.781782 29.0184C1.6197 29.4697 9.04786 33.4354 11.5699 33.4354C14.4101 33.4354 16.7211 31.1244 16.7211 28.2842C16.72 25.4428 14.4089 23.1341 11.5699 23.1329V23.1329Z" fill="#00B65F" />
	</g>
	<defs>
		<clipPath id="clip0">
			<rect width="40" height="40" fill="white" transform="translate(28.2842) rotate(45)" />
		</clipPath>
	</defs>
</svg>
