<svg width="28" height="20" viewBox="0 0 28 20" fill="none" xmlns="http://www.w3.org/2000/svg">
	<path fill-rule="evenodd" clip-rule="evenodd" d="M24.433 1.23808C25.5752 1.54569 26.4758 2.44616 26.7833 3.58853C27.3545 5.67511 27.3326 10.0245 27.3326 10.0245C27.3326 10.0245 27.3326 14.3516 26.7835 16.4384C26.4758 17.5806 25.5754 18.4812 24.433 18.7887C22.3462 19.338 13.9993 19.338 13.9993 19.338C13.9993 19.338 5.67413 19.338 3.56558 18.7669C2.42321 18.4593 1.52274 17.5586 1.21513 16.4164C0.666016 14.3516 0.666016 10.0025 0.666016 10.0025C0.666016 10.0025 0.666016 5.67511 1.21513 3.58853C1.52254 2.44636 2.44518 1.52372 3.56538 1.21631C5.65216 0.666992 13.9991 0.666992 13.9991 0.666992C13.9991 0.666992 22.3462 0.666992 24.433 1.23808ZM18.2824 10.0022L11.3413 14V6.00435L18.2824 10.0022Z" fill="white" />
</svg>
